REM MD5 a69909e26fb885aa99afca1e2df121a4
FILE "Euro Demo 17 (France).bin" BINARY
  TRACK 01 MODE2/2352
    INDEX 01 00:00:00
  TRACK 02 AUDIO
    INDEX 00 20:29:19
    INDEX 01 20:31:19
  TRACK 03 AUDIO
    INDEX 00 22:29:36
    INDEX 01 22:31:36
REM LEADOUT 25:32:67
